<svg width="77" height="105" viewBox="0 0 77 105" fill="none" xmlns="http://www.w3.org/2000/svg">
<path fill-rule="evenodd" clip-rule="evenodd" d="M19.3186 14.9371L16.8771 16.5838C22.4535 22.2316 22.4816 22.2734 25.6243 29.5625L28.0659 27.9159C24.9765 20.6639 24.799 20.6018 19.3186 14.9371Z" fill="black"/>
<path fill-rule="evenodd" clip-rule="evenodd" d="M56.1766 10.6998L58.991 12.5977C52.5633 19.1074 52.5308 19.1555 48.9088 27.5571L46.0944 25.6592C49.6552 17.3007 49.8599 17.2292 56.1769 10.6998H56.1766Z" fill="black"/>
<path d="M53.0718 15.1618C55.8621 17.953 60.3862 17.953 63.1765 15.1618C65.9668 12.3706 65.9668 7.84514 63.1765 5.05393C60.3862 2.26272 55.8621 2.26272 53.0718 5.05393C50.2815 7.84514 50.2815 12.3706 53.0718 15.1618Z" fill="#040707" stroke="black" stroke-width="0.00662097" stroke-miterlimit="2.61313"/>
<path d="M21.8284 18.296C19.8554 20.2696 16.6565 20.2696 14.6835 18.296C12.7105 16.3224 12.7105 13.1225 14.6835 11.1488C16.6565 9.1752 19.8554 9.1752 21.8284 11.1488C23.8014 13.1225 23.8014 16.3224 21.8284 18.296Z" fill="#040707" stroke="black" stroke-width="0.00468162" stroke-miterlimit="2.61313"/>
<path fill-rule="evenodd" clip-rule="evenodd" d="M46.5149 90.6559C45.8814 94.408 46.3152 96.3359 48.0134 99.3903C53.4526 97.9762 57.4903 94.821 64.3565 93.9298C71.3465 93.0217 76.3432 96.7242 74.1997 103.75C73.2766 104.932 67.9866 104.415 66.3246 104.414L42.9203 104.431C41.8946 100.256 42.0684 97.3638 40.7231 94.5713V87.9554L40.823 87.9308L41.5607 88.1896C42.3671 88.6278 43.1397 88.7099 43.7835 89.1014L45.0367 89.8134C45.5391 90.1892 46.0275 90.4602 46.5143 90.6556L46.5149 90.6559Z" fill="#040707"/>
<path fill-rule="evenodd" clip-rule="evenodd" d="M32.9432 90.9727C33.5786 94.7361 33.1436 96.6696 31.44 99.7334C25.985 98.3149 21.9351 95.1503 15.048 94.2563C8.03703 93.3457 3.02541 97.0594 5.17516 104.105C6.10104 105.291 11.4066 104.773 13.0736 104.772L36.5478 104.789C37.5763 100.602 37.4022 97.7009 38.7515 94.8996V88.2641L38.651 88.2395L37.9112 88.4989C37.1026 88.9384 36.3275 89.0208 35.6818 89.4135L34.4249 90.1274C33.9209 90.5042 33.4313 90.7764 32.9426 90.9721L32.9432 90.9727Z" fill="#040707"/>
<path d="M38.6671 96.1823C59.4701 96.1823 76.3342 79.3129 76.3342 58.5033C76.3342 37.6938 59.4701 20.8243 38.6671 20.8243C17.8641 20.8243 1 37.6938 1 58.5033C1 79.3129 17.8641 96.1823 38.6671 96.1823Z" fill="#040707" stroke="black" stroke-width="0.00693999" stroke-miterlimit="2.61313"/>
<path d="M38.6667 91.8759C57.0922 91.8759 72.029 76.9343 72.029 58.5031C72.029 40.0718 57.0922 25.1302 38.6667 25.1302C20.2412 25.1302 5.30444 40.0718 5.30444 58.5031C5.30444 76.9343 20.2412 91.8759 38.6667 91.8759Z" fill="#2972FF" stroke="black" stroke-width="0.00693999" stroke-miterlimit="2.61313"/>
<path d="M24.5296 72.0521C32.2735 72.0521 38.5512 65.7725 38.5512 58.0261C38.5512 50.2797 32.2735 44 24.5296 44C16.7856 44 10.5079 50.2797 10.5079 58.0261C10.5079 65.7725 16.7856 72.0521 24.5296 72.0521Z" fill="black" stroke="black" stroke-width="0.00693999" stroke-miterlimit="2.61313"/>
<path d="M55.0942 71.1923C61.5373 71.1923 66.7605 65.9675 66.7605 59.5223C66.7605 53.0772 61.5373 47.8524 55.0942 47.8524C48.6511 47.8524 43.428 53.0772 43.428 59.5223C43.428 65.9675 48.6511 71.1923 55.0942 71.1923Z" fill="black" stroke="black" stroke-width="0.00693999" stroke-miterlimit="2.61313"/>
<path fill-rule="evenodd" clip-rule="evenodd" d="M21.7718 48.3293C8.36585 52.6255 15.1353 71.9039 27.8401 67.6448C40.1716 63.511 34.1524 44.3618 21.7718 48.3293Z" fill="#FEFEFE"/>
<path fill-rule="evenodd" clip-rule="evenodd" d="M51.7751 52.3863C41.8739 57.2322 49.0106 71.2398 58.7243 66.7158C67.896 62.4439 61.5862 47.5841 51.7751 52.3863Z" fill="#FEFEFE"/>
<path d="M28.9772 56.8192C29.1609 55.5608 28.2132 54.8797 26.9055 54.4281L27.3316 52.7181L26.3031 52.459L25.8918 54.1246C25.6199 54.058 25.3408 53.9914 25.0616 53.9321L25.473 52.2591L24.4445 52L24.0258 53.7027C23.798 53.6508 23.5777 53.599 23.3646 53.5472V53.5398L21.9394 53.1845L21.6676 54.2949C21.6676 54.2949 22.4316 54.4725 22.4169 54.48C22.8357 54.5836 22.9091 54.8649 22.8945 55.087L22.4096 57.0339C22.439 57.0413 22.4757 57.0487 22.5198 57.0709C22.4831 57.0635 22.4463 57.0561 22.4096 57.0413L21.7337 59.7656C21.6823 59.8914 21.5501 60.0839 21.2636 60.0099C21.2709 60.0247 20.5142 59.8248 20.5142 59.8248L20 61.0167L21.3444 61.3572C21.5942 61.4238 21.8366 61.483 22.079 61.5497L21.6529 63.2745L22.6814 63.5336L23.1075 61.8236C23.3867 61.8976 23.6658 61.9716 23.9303 62.0382L23.5115 63.7409L24.54 64L24.9661 62.2751C26.7292 62.6083 28.0516 62.475 28.6025 60.8686C29.0507 59.5805 28.5805 58.8328 27.6549 58.3442C28.3381 58.1888 28.845 57.7372 28.9772 56.8192ZM26.619 60.1505C26.3031 61.4386 24.1433 60.7428 23.4454 60.5651L24.0111 58.2776C24.709 58.4553 26.957 58.8032 26.619 60.1505ZM26.9423 56.797C26.6484 57.9741 24.8559 57.3745 24.2756 57.2264L24.7898 55.1536C25.3702 55.3017 27.2435 55.5756 26.9423 56.797Z" fill="#2972FF"/>
<path d="M58.9797 58.016C59.143 56.9673 58.3006 56.3998 57.1383 56.0234L57.517 54.5984L56.6028 54.3825L56.2371 55.7705C55.9955 55.715 55.7474 55.6595 55.4992 55.6101L55.8649 54.2159L54.9507 54L54.5785 55.4189C54.376 55.3757 54.1801 55.3325 53.9908 55.2893V55.2832L52.7239 54.987L52.4823 55.9124C52.4823 55.9124 53.1615 56.0605 53.1484 56.0666C53.5206 56.153 53.5859 56.3874 53.5728 56.5725L53.1419 58.1949C53.168 58.2011 53.2006 58.2073 53.2398 58.2258C53.2072 58.2196 53.1745 58.2134 53.1419 58.2011L52.5411 60.4713C52.4954 60.5762 52.3778 60.7366 52.1232 60.6749C52.1297 60.6872 51.4571 60.5207 51.4571 60.5207L51 61.5139L52.195 61.7977C52.417 61.8532 52.6325 61.9025 52.848 61.9581L52.4693 63.3954L53.3835 63.6114L53.7622 62.1863C54.0104 62.248 54.2585 62.3097 54.4936 62.3652L54.1214 63.7841L55.0356 64L55.4143 62.5626C56.9815 62.8402 58.157 62.7292 58.6467 61.3905C59.045 60.3171 58.6271 59.694 57.8043 59.2869C58.4116 59.1573 58.8622 58.781 58.9797 58.016ZM56.8836 60.7921C56.6028 61.8655 54.683 61.2856 54.0626 61.1376L54.5654 59.2313C55.1858 59.3794 57.184 59.6693 56.8836 60.7921ZM57.1709 57.9975C56.9097 58.9784 55.3164 58.4787 54.8005 58.3553L55.2576 56.628C55.7735 56.7514 57.4386 56.9796 57.1709 57.9975Z" fill="#2972FF"/>
</svg>
